<?xml version="1.0" standalone="no"?>
<!DOCTYPE svg PUBLIC "-//W3C//DTD SVG 20010904//EN"
 "http://www.w3.org/TR/2001/REC-SVG-20010904/DTD/svg10.dtd">
<svg version="1.0" xmlns="http://www.w3.org/2000/svg"
 width="20.000000pt" height="15.000000pt" viewBox="0 0 20.000000 15.000000"
 preserveAspectRatio="xMidYMid meet">

<g transform="translate(0.000000,15.000000) scale(0.100000,-0.100000)"
fill="#000000" stroke="none">
<path d="M0 100 c0 -37 4 -52 17 -58 33 -17 42 -3 22 36 -32 62 -23 75 30 47
27 -13 29 -13 34 5 5 18 0 20 -49 20 l-54 0 0 -50z"/>
<path d="M160 143 c1 -15 27 -43 33 -36 15 15 6 43 -13 43 -11 0 -20 -3 -20
-7z"/>
<path d="M162 29 l-24 -29 31 0 c28 0 31 3 31 30 0 37 -9 37 -38 -1z"/>
<path d="M0 10 c0 -5 5 -10 11 -10 5 0 7 5 4 10 -3 6 -8 10 -11 10 -2 0 -4 -4
-4 -10z"/>
</g>
</svg>
